<?xml version="1.0" encoding="UTF-8" standalone="no"?>
<svg
   xmlns:dc="http://purl.org/dc/elements/1.1/"
   xmlns:cc="http://creativecommons.org/ns#"
   xmlns:rdf="http://www.w3.org/1999/02/22-rdf-syntax-ns#"
   xmlns:svg="http://www.w3.org/2000/svg"
   xmlns="http://www.w3.org/2000/svg"
   xmlns:sodipodi="http://sodipodi.sourceforge.net/DTD/sodipodi-0.dtd"
   xmlns:inkscape="http://www.inkscape.org/namespaces/inkscape"
   enable-background="new 0 0 400 400"
   viewBox="0 0 400 400"
   version="1.1"
   id="svg1093"
   sodipodi:docname="expertise-fullstack.svg"
   inkscape:version="1.0.2-2 (e86c870879, 2021-01-15)">
  <metadata
     id="metadata1099">
    <rdf:RDF>
      <cc:Work
         rdf:about="">
        <dc:format>image/svg+xml</dc:format>
        <dc:type
           rdf:resource="http://purl.org/dc/dcmitype/StillImage" />
        <dc:title></dc:title>
      </cc:Work>
    </rdf:RDF>
  </metadata>
  <defs
     id="defs1097" />
  <sodipodi:namedview
     pagecolor="#ffffff"
     bordercolor="#666666"
     borderopacity="1"
     objecttolerance="10"
     gridtolerance="10"
     guidetolerance="10"
     inkscape:pageopacity="0"
     inkscape:pageshadow="2"
     inkscape:window-width="1404"
     inkscape:window-height="1048"
     id="namedview1095"
     showgrid="false"
     inkscape:zoom="1.1125"
     inkscape:cx="344.15854"
     inkscape:cy="77.490099"
     inkscape:window-x="244"
     inkscape:window-y="0"
     inkscape:window-maximized="0"
     inkscape:current-layer="svg1093" />
  <ellipse
     style="fill:none;stroke:#1c3ed3;stroke-width:10;stroke-linejoin:round;stroke-miterlimit:4;stroke-dasharray:none;stroke-opacity:1;paint-order:markers fill stroke"
     id="path16"
     cx="202.24719"
     cy="202.24719"
     rx="182.53748"
     ry="182.53746" />
  <path
     id="path1163"
     style="fill:#1c3ed3;fill-opacity:1;stroke-width:0.73069"
     d="m 204.29686,90.457779 c -9.11252,2.88347 -17.22783,8 -25.49962,12.359891 -2.12683,1.14639 -4.32796,2.16714 -6.49401,3.23954 -9.76011,5.68212 -20.20587,10.22631 -29.95713,15.92239 -14.62334,7.3865 -29.27246,14.75435 -43.426792,22.92557 -2.67467,2.94193 -4.094767,6.74871 -4.414927,10.58309 -0.69295,7.3363 1.617467,14.59309 0.97964,21.92838 -0.0992,1.13696 -0.41289,2.24936 -0.31528,3.39739 -0.0872,22.33353 0.506977,44.67497 -0.32123,67.00162 -0.1291,3.17043 -0.26877,6.45818 -0.45877,9.67154 -0.1475,0.48253 0.0977,0.84848 0.44269,1.18439 3.991747,4.99554 9.693069,8.43977 15.500029,11.2901 5.27907,2.62338 10.76746,4.89175 15.82258,7.90147 22.27321,11.20589 43.85618,23.5734 66.18969,34.69019 2.74673,2.5221 6.52396,4.02076 10.36624,3.99936 5.1534,-0.006 10.00694,-2.09563 14.28768,-4.64597 1.34731,-0.79391 2.59295,-1.73351 4.0285,-2.38954 24.01504,-12.49837 47.7947,-25.40466 72.02982,-37.52296 5.61407,-2.45909 11.19913,-5.3357 15.47333,-9.64426 2.97691,-2.98864 5.05531,-6.90021 5.19615,-11.04754 0.11743,-2.62553 -0.45822,-5.2484 -1.45538,-7.69164 0.20181,-28.91996 -0.48671,-57.84758 0.42541,-86.76115 0.0705,-2.04194 0.14644,-4.17568 0.22231,-6.25297 -2.3788,-3.99731 -6.14957,-7.07725 -10.25825,-9.43585 -6.42651,-3.7495 -13.69587,-6.07102 -19.89328,-10.18797 -1.60954,-0.97678 -3.34471,-1.76478 -5.00313,-2.66812 -11.13237,-5.77714 -22.309,-11.48349 -33.33177,-17.44691 -10.84362,-5.37246 -21.38949,-11.263696 -32.26887,-16.570401 -2.06879,-1.26754 -3.74129,-3.23961 -6.24714,-3.77229 -0.52342,-0.0746 -1.11447,-0.26808 -1.61849,-0.0573 z m 0.60453,8.812705 c 8.99623,3.763406 17.33847,8.729336 26.02995,13.050726 7.95391,4.92062 16.69274,8.53864 24.93479,12.98592 0.64378,0.35647 1.49146,0.81244 2.2046,1.22315 1.74745,0.96292 3.38037,2.10415 5.21548,2.9212 10.01921,5.02275 19.70481,10.6131 29.74274,15.60311 3.18789,0.7179 6.29593,2.30899 8.11406,4.95767 2.27203,3.25259 2.70594,7.27074 2.81111,11.07029 0.0973,4.54127 -0.41618,9.09474 -0.39471,13.67835 -0.13424,26.17703 -0.45145,52.36331 0.4567,78.53194 -2.27119,4.32323 -6.37343,7.47666 -10.70167,9.88386 -7.01935,3.91608 -14.84902,6.42863 -21.58578,10.81358 -19.49445,10.72236 -39.39342,20.73662 -58.98752,31.3034 -2.5097,1.95936 -5.79524,3.03211 -9.05737,2.78963 -3.48524,-0.21634 -6.77601,-1.50258 -9.8447,-3.00243 -0.32775,-0.16479 -0.92545,-0.46191 -1.34954,-0.69193 -2.97899,-1.55536 -5.77956,-3.3935 -8.68205,-5.06441 -9.77359,-4.55743 -18.80764,-10.39551 -28.62044,-14.88297 -14.58118,-8.14825 -29.75965,-15.27639 -44.2589,-23.52257 -1.27783,-0.75096 -2.60819,-1.4415 -3.83129,-2.26395 -2.31103,-1.94249 -3.44372,-4.84163 -3.6713,-7.70092 -0.54533,-6.11908 1.3517,-12.21427 0.49476,-18.32791 0.38445,-26.05089 0.24256,-52.10959 -0.50858,-78.1537 1.53561,-3.65486 4.84798,-6.31423 8.33967,-8.28732 5.29364,-2.99774 11.18423,-4.94694 16.36561,-8.13368 10.42642,-5.3654 20.37411,-11.56966 31.1485,-16.32441 12.95574,-7.26659 26.21263,-13.94231 39.44341,-20.74812 0.16333,-0.59498 0.36106,-1.291016 1.0674,-1.495126 1.21493,-0.475365 2.55192,-0.500105 3.82805,-0.738605 0.43234,0.17507 0.86468,0.35015 1.29702,0.525225 z m -1.70005,19.264486 c -0.57326,-0.008 -1.13577,0.0589 -1.57648,0.43623 -8.59297,5.22121 -17.86554,9.23081 -26.65992,14.12596 -10.79299,5.18251 -21.05265,11.29354 -31.8587,16.45358 -3.22784,1.8561 -6.72128,3.25542 -10.00313,5.02198 -2.36364,1.2946 -4.8373,2.62091 -6.53039,4.69931 -1.04621,1.25103 -1.35673,3.11408 -0.37264,4.47956 1.30383,1.81399 3.60945,2.61258 5.72189,3.28193 0.55038,0.1615 1.13017,0.25123 1.50054,0.71163 3.84978,3.08305 8.67354,4.71211 13.20283,6.67226 3.25211,1.42416 6.65762,2.9004 9.05359,5.5048 1.04019,1.15044 1.76418,2.56173 2.01127,4.05982 -3.01744,2.24184 -6.24919,4.21192 -9.55418,6.05222 -0.53618,0.28524 -1.28167,0.69862 -1.90113,1.02921 -5.62904,3.00974 -11.48184,5.63318 -17.20962,8.4578 -1.60188,1.24582 -3.10547,3.04009 -2.87905,5.11376 0.23176,2.1798 2.12142,3.74785 3.9478,4.87944 3.6198,2.18136 7.70588,3.55142 11.57122,5.20257 1.98994,0.88296 4.10327,1.6807 5.73161,3.11518 0.45294,0.62663 1.34455,0.51271 2.01583,0.79914 3.04892,0.99331 5.90792,2.78915 7.72036,5.34289 0.77399,1.09864 1.2595,2.69235 0.2709,3.81624 -1.13428,1.32236 -2.93747,1.80414 -4.55471,2.37272 -9.85282,4.50414 -19.0298,10.17913 -28.69944,15.00668 1.23992,1.89005 2.62319,3.71814 4.39794,5.19801 4.4714,3.83725 10.07145,6.16378 15.46424,8.59685 3.3869,1.48683 6.7354,3.06272 9.90791,4.92922 7.92729,4.44793 16.0704,8.53679 24.16773,12.6992 2.98717,0.92243 5.65744,2.53791 8.25716,4.16864 0.89673,0.58351 1.95048,1.25581 2.90382,1.87378 3.72409,2.38703 7.52876,4.91689 11.97287,5.92455 3.23204,0.76584 6.77132,0.26429 9.58453,-1.4352 1.09219,-0.60472 2.0164,-1.43482 2.99176,-2.17652 14.28895,-8.17098 29.45788,-14.88249 43.63365,-23.23547 6.61012,-3.62639 14.04843,-5.87542 20.1838,-10.26861 2.06642,-1.46575 3.84168,-3.26805 5.3048,-5.27591 0.4952,-0.41449 0.48978,-0.74253 -0.16143,-0.95909 -8.06295,-5.02531 -16.65913,-9.2094 -25.10282,-13.6215 -2.48327,-1.3067 -5.04598,-2.68185 -7.5135,-4.09015 -0.68063,-1.21977 -0.84443,-2.8091 0.0902,-3.95722 1.5079,-1.90138 3.87626,-2.9303 6.07456,-3.95659 3.80186,-1.71478 7.88318,-2.95336 11.37137,-5.23264 0.65178,-0.37539 1.10316,-1.03177 1.87358,-1.19979 3.52721,-1.36508 7.04364,-3.04221 9.71985,-5.66082 1.41155,-1.39709 2.45717,-3.42615 1.79121,-5.37003 -0.76113,-2.19008 -3.0396,-3.44121 -5.16572,-4.28335 -1.01229,-0.43225 -2.11241,-0.65993 -3.13128,-1.05533 -5.04762,-2.69117 -10.28445,-5.05362 -15.2878,-7.82077 -0.43603,-0.25401 -1.10816,-0.62432 -1.63072,-0.93057 -2.11838,-1.23778 -4.18094,-2.56676 -6.10827,-4.05912 0.25018,-2.558 2.08212,-4.6986 4.2567,-6.11532 4.22598,-2.76959 9.21897,-4.16802 13.77675,-6.34713 2.03162,-0.95725 4.01846,-2.05037 5.70969,-3.49368 2.73458,-0.93611 5.50554,-2.11388 7.53588,-4.13846 1.14013,-1.13562 1.74969,-2.90776 0.94896,-4.36953 -1.00022,-1.86599 -3.20339,-2.69007 -5.15445,-3.38949 -8.35495,-4.96405 -17.53224,-8.45507 -25.68358,-13.72144 -0.81743,-0.59593 -1.70634,-1.07386 -2.65869,-1.45119 -7.15659,-3.22683 -14.16804,-6.74466 -20.97106,-10.59406 -2.09608,-1.18833 -4.28819,-2.47609 -6.38222,-3.7618 -0.5404,-0.28622 -1.00487,-0.78916 -1.67695,-0.69709 -2.64469,-0.15927 -4.85131,-1.73763 -6.94909,-3.11398 -2.49787,-1.64557 -4.96159,-3.62414 -8.04558,-4.15728 -0.41202,-0.0617 -0.82749,-0.0875 -1.24425,-0.086 z m 2.65483,8.78403 c 10.55271,4.88403 20.77895,10.41235 30.94376,15.96993 8.24703,4.6849 16.79189,8.87425 25.23149,13.23621 2.28544,0.29966 4.77118,1.19055 5.90997,3.22014 0.9085,1.54661 0.36148,3.56342 -1.04172,4.67643 -1.43418,1.21578 -3.37795,1.70147 -5.25528,1.87755 -18.4198,9.67226 -36.85242,19.32249 -55.23966,29.04917 -4.44156,0.33962 -8.69876,-1.36441 -12.48057,-3.39286 -6.16554,-3.30214 -11.70029,-7.71261 -18.38991,-10.097 -1.26947,-0.41519 -2.33655,-1.23357 -3.52116,-1.82057 -10.68101,-5.89884 -21.64731,-11.31909 -32.46689,-16.98521 -0.6159,-1.0987 -0.62142,-2.53499 0.29431,-3.49241 1.58752,-1.75983 3.91215,-2.69422 6.07862,-3.65961 3.83523,-1.65203 7.94315,-2.86546 11.39524,-5.21052 0.8,-0.49983 1.33455,-1.31034 2.25598,-1.62984 12.90076,-6.39098 25.3469,-13.5662 38.2686,-19.92142 1.9847,-1.10024 4.02873,-2.27522 6.34916,-2.58067 0.55602,0.25356 1.11204,0.50712 1.66806,0.76068 z m 32.28017,60.40906 c 7.22098,3.73843 15.24603,5.96722 22.19741,10.18958 2.92633,1.80853 5.81401,4.12476 6.95455,7.35584 -6.85105,5.25293 -14.96446,8.68922 -22.80435,12.3882 -2.35266,1.07263 -4.65112,2.24345 -6.88423,3.52406 -10.6362,5.88649 -21.00486,12.36339 -32.49793,16.7088 -0.41124,0.19306 -0.83346,0.32593 -1.2781,0.15055 -6.35281,-1.29357 -11.89946,-4.66152 -17.38097,-7.79682 -2.87079,-1.68509 -5.8087,-3.26747 -8.81401,-4.72762 -12.39716,-6.62452 -25.28176,-12.44635 -37.26527,-19.75061 -0.0508,-2.3216 1.39684,-4.41495 3.26888,-5.81612 3.40987,-2.57775 7.57279,-3.99231 11.49903,-5.70077 3.13608,-1.31921 6.28837,-2.75488 8.85531,-4.94886 1.81526,-1.40146 4.31651,-1.85064 6.57487,-1.31392 3.76672,0.83246 6.98071,2.97836 10.26888,4.79832 1.45795,0.84932 2.9786,1.60277 4.4969,2.34192 4.72268,3.06472 9.7199,6.02278 15.37434,7.24203 3.97926,0.87075 8.31734,0.51741 11.92267,-1.36428 1.77281,-0.87822 3.3255,-2.10348 4.75893,-3.40247 6.74045,-3.18627 12.89495,-7.48606 20.02358,-9.92175 0.30444,-0.1349 0.45644,-0.18167 0.72951,0.0439 z m -68.46421,42.23277 c 3.53479,0.96296 6.74574,2.75475 9.84636,4.58781 5.31475,3.15631 10.46267,6.93379 16.34823,9.25928 3.89549,1.54381 8.32197,2.28398 12.46517,1.24574 8.08876,-3.06218 14.7084,-8.64838 22.58942,-12.0871 2.95363,-1.26978 6.14226,-2.18776 9.41247,-2.19525 7.95411,4.34289 16.25388,8.09149 24.13691,12.54957 1.15248,0.94937 2.47658,2.09263 2.54063,3.63627 -0.10024,1.49192 -1.42716,2.55015 -2.58409,3.41531 -1.47156,1.06306 -3.18587,1.94005 -4.75574,2.69648 -1.49905,0.71973 -3.22114,1.47529 -4.81887,2.20046 -3.1073,1.35766 -5.93908,3.19213 -8.92871,4.75605 -13.53503,7.34324 -27.56065,13.8813 -40.76343,21.76568 -6.43865,-1.42343 -12.02962,-4.92198 -17.57965,-8.1589 -3.56997,-2.10663 -7.21164,-4.13516 -11.09071,-5.6946 -11.52968,-6.24996 -23.17274,-12.30841 -34.79287,-18.40744 -0.85189,-1.45534 -1.18407,-3.36133 -0.14641,-4.81512 1.43345,-2.06089 3.83913,-3.24203 6.08589,-4.36335 4.12205,-1.98323 8.58253,-3.3466 12.47801,-5.73777 0.72938,-0.46403 1.3662,-1.03959 2.18007,-1.3748 2.13009,-1.10577 4.03103,-2.74142 6.46411,-3.22851 0.30125,-0.0493 0.60798,-0.0638 0.91321,-0.0498 z" />
</svg>
