<?xml version="1.0" encoding="UTF-8" standalone="no"?>
<svg
   xmlns:dc="http://purl.org/dc/elements/1.1/"
   xmlns:cc="http://creativecommons.org/ns#"
   xmlns:rdf="http://www.w3.org/1999/02/22-rdf-syntax-ns#"
   xmlns:svg="http://www.w3.org/2000/svg"
   xmlns="http://www.w3.org/2000/svg"
   xmlns:sodipodi="http://sodipodi.sourceforge.net/DTD/sodipodi-0.dtd"
   xmlns:inkscape="http://www.inkscape.org/namespaces/inkscape"
   enable-background="new 0 0 400 400"
   viewBox="0 0 400 400"
   version="1.1"
   id="svg1093"
   sodipodi:docname="expertise-back-black.svg"
   inkscape:version="1.0.2-2 (e86c870879, 2021-01-15)">
  <metadata
     id="metadata1099">
    <rdf:RDF>
      <cc:Work
         rdf:about="">
        <dc:format>image/svg+xml</dc:format>
        <dc:type
           rdf:resource="http://purl.org/dc/dcmitype/StillImage" />
      </cc:Work>
    </rdf:RDF>
  </metadata>
  <defs
     id="defs1097" />
  <sodipodi:namedview
     pagecolor="#ffffff"
     bordercolor="#666666"
     borderopacity="1"
     objecttolerance="10"
     gridtolerance="10"
     guidetolerance="10"
     inkscape:pageopacity="0"
     inkscape:pageshadow="2"
     inkscape:window-width="1075"
     inkscape:window-height="822"
     id="namedview1095"
     showgrid="false"
     inkscape:zoom="1.1125"
     inkscape:cx="215.59565"
     inkscape:cy="136.7252"
     inkscape:window-x="470"
     inkscape:window-y="136"
     inkscape:window-maximized="0"
     inkscape:current-layer="svg1093" />
  <path
     d="m276.7 237.7c-4.4 0-8.7 1.7-12 4.6l-31.9-26.9c5.5-8 6-18.4 1.2-26.9l27.1-19c7.6 8.4 20.6 9.1 29 1.5s9.1-20.6 1.5-29-20.6-9.1-29-1.5c-7.1 6.4-8.9 16.8-4.3 25.1l-27.1 19c-3.3-3.9-7.6-6.6-12.5-8l4.1-22.9c7.1-.1 12.7-5.9 12.6-13s-5.9-12.7-13-12.6-12.7 5.9-12.6 13c.1 5.2 3.3 9.9 8.2 11.8l-4.1 22.9c-.7-.1-1.4-.1-2-.1-5.5 0-10.8 1.8-15.2 5.1l-38.4-42.1c5.5-6.8 4.4-16.7-2.4-22.2s-16.7-4.4-22.2 2.4-4.4 16.7 2.4 22.2c5.4 4.3 12.9 4.7 18.6.9l38.4 42.1c-4.1 4.5-6.4 10.3-6.6 16.3l-53.3 3.6c-1.9-8.4-10.3-13.7-18.7-11.8s-13.7 10.3-11.8 18.7 10.3 13.7 18.7 11.8c6.7-1.5 11.6-7.2 12.2-14l53.3-3.6c1.2 7.4 5.7 13.9 12.2 17.7l-13.1 28.4c-9.7-3-20 2.4-23 12.1s2.4 20 12.1 23 20-2.4 23-12.1c2.5-7.9-.7-16.5-7.8-21l13.1-28.4c9.1 3.2 19.2 1 26.1-5.8l31.9 26.9c-5.3 8.3-2.8 19.4 5.5 24.6 8.3 5.3 19.4 2.8 24.6-5.5s2.8-19.4-5.5-24.6c-2.6-1.8-5.9-2.7-9.3-2.7z"
     id="path1091"
     style="fill:#1c3ed3;fill-opacity:1" />
  <ellipse
     style="fill:none;stroke:#1c3ed3;stroke-width:10;stroke-linejoin:round;stroke-miterlimit:4;stroke-dasharray:none;stroke-opacity:1;paint-order:markers fill stroke"
     id="path16"
     cx="202.24719"
     cy="202.24719"
     rx="182.53748"
     ry="182.53746" />
</svg>
