<?xml version="1.0" encoding="UTF-8" standalone="no"?>
<svg
   xmlns:dc="http://purl.org/dc/elements/1.1/"
   xmlns:cc="http://creativecommons.org/ns#"
   xmlns:rdf="http://www.w3.org/1999/02/22-rdf-syntax-ns#"
   xmlns:svg="http://www.w3.org/2000/svg"
   xmlns="http://www.w3.org/2000/svg"
   xmlns:sodipodi="http://sodipodi.sourceforge.net/DTD/sodipodi-0.dtd"
   xmlns:inkscape="http://www.inkscape.org/namespaces/inkscape"
   enable-background="new 0 0 400 400"
   viewBox="0 0 400 400"
   version="1.1"
   id="svg8"
   sodipodi:docname="expertise-front-black.svg"
   inkscape:version="1.0.2-2 (e86c870879, 2021-01-15)">
  <metadata
     id="metadata14">
    <rdf:RDF>
      <cc:Work
         rdf:about="">
        <dc:format>image/svg+xml</dc:format>
        <dc:type
           rdf:resource="http://purl.org/dc/dcmitype/StillImage" />
      </cc:Work>
    </rdf:RDF>
  </metadata>
  <defs
     id="defs12" />
  <sodipodi:namedview
     pagecolor="#ffffff"
     bordercolor="#666666"
     borderopacity="1"
     objecttolerance="10"
     gridtolerance="10"
     guidetolerance="10"
     inkscape:pageopacity="0"
     inkscape:pageshadow="2"
     inkscape:window-width="1920"
     inkscape:window-height="1057"
     id="namedview10"
     showgrid="false"
     inkscape:zoom="2.225"
     inkscape:cx="200"
     inkscape:cy="200"
     inkscape:window-x="-8"
     inkscape:window-y="-8"
     inkscape:window-maximized="1"
     inkscape:current-layer="svg8" />
  <ellipse
     style="fill:none;stroke:#1c3ed3;stroke-width:10;stroke-linejoin:round;stroke-miterlimit:4;stroke-dasharray:none;stroke-opacity:1;paint-order:markers fill stroke"
     id="path16"
     cx="198.18195"
     cy="198.02467"
     rx="182.53748"
     ry="182.53746" />
  <path
     d="m110 195.1c3 0 5.4-1.7 7.3-5s2.8-7.6 2.8-12.7v-24c0-5.6 1.5-9.9 4.6-13 2.8-3 6.8-4.6 10.9-4.6h8.5v9.5h-2.8c-2.5 0-4.3.9-5.4 2.8-1.2 2.4-1.7 5-1.6 7.7v23.9c.1 3-.3 6-1.1 8.9-.6 2.2-1.5 4.2-2.7 6.1-.9 1.4-2.1 2.7-3.6 3.6-1.1.7-2.3 1.3-3.6 1.6v.3c1.3.3 2.5.8 3.6 1.5 1.4.9 2.6 2.1 3.6 3.6 1.2 1.9 2.1 4 2.7 6.2.8 3 1.2 6.1 1.1 9.2v23.3c0 3.4.5 6 1.6 7.8 1 1.8 2.8 2.8 5.4 2.8h2.8v9.5h-8.5c-4.1 0-8.1-1.6-10.9-4.6-3.1-3.1-4.6-7.4-4.6-12.9v-23.8c0-5.4-.9-9.8-2.8-13.1-1.9-3.4-4.3-5.1-7.3-5.1z"
     id="path2"
     style="fill:#1c3ed3;fill-opacity:1" />
  <path
     d="m290 204.6c-2.9 0-5.4 1.7-7.3 5.1s-2.8 7.7-2.8 13.1v23.9c0 5.6-1.5 9.9-4.6 13-2.8 3-6.8 4.6-10.9 4.6h-8.5v-9.5h2.8c2.5 0 4.3-.9 5.4-2.8s1.6-4.4 1.6-7.8v-23.6c-.1-3.1.3-6.2 1.1-9.2.6-2.2 1.5-4.3 2.7-6.2.9-1.4 2.1-2.6 3.5-3.6 1.1-.7 2.3-1.2 3.6-1.5v-.3c-1.3-.3-2.5-.8-3.6-1.6-1.4-1-2.6-2.2-3.5-3.6-1.2-1.9-2.1-3.9-2.7-6.1-.8-2.9-1.2-5.9-1.1-8.9v-23.9c.1-2.6-.4-5.3-1.6-7.7-1.1-1.8-2.9-2.8-5.4-2.8h-2.8v-9.5h8.5c4.1 0 8.1 1.6 10.9 4.6 3.1 3.1 4.6 7.4 4.6 13v24c0 5.2.9 9.4 2.8 12.7s4.3 5 7.3 5z"
     id="path4"
     style="fill:#1c3ed3;fill-opacity:1" />
  <path
     d="m184.3 249.9c6.5-2.9 11.4-6.5 14.7-10.7s5-9.4 5.2-15.7c-.5.1-1 .2-1.5.2-.5.1-1 .1-1.5.1-3.2.1-6.2-1-8.7-2.9-2.4-1.9-3.6-4.9-3.6-8.9 0-3.9 1.3-6.9 3.8-8.9s5.6-3.1 8.9-3.1c4.7 0 8.3 1.8 10.7 5.5 2.4 3.6 3.6 8.6 3.6 14.8 0 9.3-2.4 17.1-7.4 23.5s-11.7 11.2-20.5 14.5zm3.5-79.8c-.1-3.6 1.2-7.1 3.7-9.7 5.1-4.9 13.1-4.9 18.2 0 2.5 2.6 3.9 6.1 3.7 9.7.2 3.6-1.2 7.1-3.7 9.6-5.1 4.9-13.1 4.9-18.2 0-2.6-2.5-3.9-6-3.7-9.6z"
     id="path6"
     style="fill:#1c3ed3;fill-opacity:1" />
</svg>
