<?xml version="1.0" encoding="UTF-8" standalone="no"?>
<svg
   xmlns:dc="http://purl.org/dc/elements/1.1/"
   xmlns:cc="http://creativecommons.org/ns#"
   xmlns:rdf="http://www.w3.org/1999/02/22-rdf-syntax-ns#"
   xmlns:svg="http://www.w3.org/2000/svg"
   xmlns="http://www.w3.org/2000/svg"
   xmlns:sodipodi="http://sodipodi.sourceforge.net/DTD/sodipodi-0.dtd"
   xmlns:inkscape="http://www.inkscape.org/namespaces/inkscape"
   enable-background="new 0 0 400 400"
   viewBox="0 0 400 400"
   version="1.1"
   id="svg1033"
   sodipodi:docname="expertise-cloud-black.svg"
   inkscape:version="1.0.2-2 (e86c870879, 2021-01-15)">
  <metadata
     id="metadata1039">
    <rdf:RDF>
      <cc:Work
         rdf:about="">
        <dc:format>image/svg+xml</dc:format>
        <dc:type
           rdf:resource="http://purl.org/dc/dcmitype/StillImage" />
      </cc:Work>
    </rdf:RDF>
  </metadata>
  <defs
     id="defs1037" />
  <sodipodi:namedview
     pagecolor="#ffffff"
     bordercolor="#666666"
     borderopacity="1"
     objecttolerance="10"
     gridtolerance="10"
     guidetolerance="10"
     inkscape:pageopacity="0"
     inkscape:pageshadow="2"
     inkscape:window-width="1314"
     inkscape:window-height="1048"
     id="namedview1035"
     showgrid="false"
     inkscape:zoom="0.78665629"
     inkscape:cx="272.7332"
     inkscape:cy="339.49609"
     inkscape:window-x="560"
     inkscape:window-y="0"
     inkscape:window-maximized="0"
     inkscape:current-layer="svg1033" />
  <path
     d="M 263.4,259.4 H 148.8 c -28.4,0 -51.3,-23 -51.3,-51.4 0,-24.4 17.3,-45.5 41.2,-50.3 14.3,-34.1 53.6,-50.2 87.7,-35.8 22.4,9.4 38,30.3 40.7,54.4 18.2,2.8 32.4,17.1 35.1,35.3 1.7,11.5 -2.4,24.1 -10.8,33.8 -7.6,8.9 -17.9,14 -28,14 z M 200.6,126.6 c -2,0 -3.9,0.1 -5.9,0.3 -20.9,2.1 -38.9,15.5 -46.9,34.9 l -1.9,4.6 -4.9,0.9 c -22.4,4.4 -37.1,26.1 -32.7,48.5 3.8,19.4 20.8,33.4 40.5,33.5 h 114.6 c 7.2,0 14.7,-3.8 20.4,-10.5 6.5,-7.5 9.7,-17.2 8.4,-25.8 -2.1,-14 -13.1,-25 -27.1,-26.9 l -7.2,-1 -0.7,-7.3 c -3,-29 -27.4,-51.1 -56.6,-51.2 z"
     id="path1031"
     style="fill:#1c3ed3;fill-opacity:1" />
  <ellipse
     style="fill:none;stroke:#1c3ed3;stroke-width:10;stroke-linejoin:round;stroke-miterlimit:4;stroke-dasharray:none;stroke-opacity:1;paint-order:markers fill stroke"
     id="path16"
     cx="199.93492"
     cy="199.20613"
     rx="182.53748"
     ry="182.53746" />
</svg>
