<?xml version="1.0" encoding="UTF-8" standalone="no"?>
<svg
   xmlns:dc="http://purl.org/dc/elements/1.1/"
   xmlns:cc="http://creativecommons.org/ns#"
   xmlns:rdf="http://www.w3.org/1999/02/22-rdf-syntax-ns#"
   xmlns:svg="http://www.w3.org/2000/svg"
   xmlns="http://www.w3.org/2000/svg"
   xmlns:sodipodi="http://sodipodi.sourceforge.net/DTD/sodipodi-0.dtd"
   xmlns:inkscape="http://www.inkscape.org/namespaces/inkscape"
   enable-background="new 0 0 400 400"
   viewBox="0 0 400 400"
   version="1.1"
   id="svg1033"
   sodipodi:docname="expertise-formateur.svg"
   inkscape:version="1.0.2-2 (e86c870879, 2021-01-15)">
  <metadata
     id="metadata1039">
    <rdf:RDF>
      <cc:Work
         rdf:about="">
        <dc:format>image/svg+xml</dc:format>
        <dc:type
           rdf:resource="http://purl.org/dc/dcmitype/StillImage" />
        <dc:title></dc:title>
      </cc:Work>
    </rdf:RDF>
  </metadata>
  <defs
     id="defs1037" />
  <sodipodi:namedview
     pagecolor="#ffffff"
     bordercolor="#666666"
     borderopacity="1"
     objecttolerance="10"
     gridtolerance="10"
     guidetolerance="10"
     inkscape:pageopacity="0"
     inkscape:pageshadow="2"
     inkscape:window-width="1920"
     inkscape:window-height="1057"
     id="namedview1035"
     showgrid="false"
     inkscape:zoom="1.1125"
     inkscape:cx="154.86298"
     inkscape:cy="280.79723"
     inkscape:window-x="-8"
     inkscape:window-y="-8"
     inkscape:window-maximized="1"
     inkscape:current-layer="svg1033"
     inkscape:document-rotation="0" />
  <ellipse
     style="fill:none;stroke:#1c3ed3;stroke-width:10;stroke-linejoin:round;stroke-miterlimit:4;stroke-dasharray:none;stroke-opacity:1;paint-order:markers fill stroke"
     id="path16"
     cx="199.93492"
     cy="199.20613"
     rx="182.53748"
     ry="182.53746" />
  <path
     id="path1561"
     style="fill:#1b3dd2;fill-opacity:1;stroke:#1b3dd4;stroke-width:1.36118px;stroke-linecap:butt;stroke-linejoin:miter;stroke-opacity:1"
     d="m 203.17316,99.981117 -135.709405,75.171303 31.918102,16.42512 0.990583,25.05157 a 9.1060343,9.8742912 0 0 0 -8.820752,9.86947 9.1060343,9.8742912 0 0 0 8.202919,9.82794 l -9.377318,39.54432 19.385241,0.63674 -6.65067,-40.5022 a 9.1060343,9.8742912 0 0 0 6.65067,-9.5068 9.1060343,9.8742912 0 0 0 -8.54248,-9.85286 l -1.695223,-24.99342 39.324483,20.23725 -7.34765,-3.61005 -0.58975,65.61468 71.08685,36.31356 71.08684,-38.22379 0.5872,-46.50416 -66.3867,35.67406 -8.2259,-3.82044 1.06973,-13.90862 5.98177,3.0785 133.94525,-71.35087 z m -0.94208,60.517983 a 19.680783,14.652174 0 0 1 0.0613,0 19.680783,14.652174 0 0 1 19.68139,14.65332 19.680783,14.652174 0 0 1 -19.68139,14.65332 19.680783,14.652174 0 0 1 -19.68138,-14.65332 19.680783,14.652174 0 0 1 19.6201,-14.65332 z" />
</svg>
